{"title":"Kurozuka ( Complete Ep 1-12) 480p [Cursator]","uid":7832590,"size":655182604,"categoryP":"video","categoryS":"tv_shows","magnet":"?xt=urn:btih:19288e7099c5969fefa5b9477941095055df9648&amp;dn=Kurozuka+%28+Complete+Ep+1-12%29+480p+%5BCursator%5D&amp;tr=udp%3A%2F%2Ftracker.openbittorrent.com%3A80&amp;tr=udp%3A%2F%2Fopen.demonii.com%3A1337&amp;tr=udp%3A%2F%2Ftracker.coppersurfer.tk%3A6969&amp;tr=udp%3A%2F%2Fexodus.desync.com%3A6969","seeders":0,"leechers":1,"uploader":"Cursator","files":-1,"time":1353089984,"description":"All The Episodes of Death Note( Complete Ep 1-37) at 480p Video Quality :)\n\nPlease seed after you download.\n\n--------------------------------------------------------------------------------\n\nCover\n--------------------------------------------------------------------------------\n  &lt;a href=&quot;\nhttp://img197.imageshack.us/img197/3027/deathnote480pcursator.jpg&quot; rel=&quot;nofollow&quot; target=&quot;_NEW&quot;&gt;\nhttp://img197.imageshack.us/img197/3027/deathnote480pcursator.jpg&lt;/a&gt;\n--------------------------------------------------------------------------------\n\nInfo\n---------------------------------------------------------------------------------\n\nGeneral\n--------\n\nFormat                                   : MPEG-4\nFormat profile                           : Base Media\nCodec ID                                 : isom\nFile size                                : 50.7 MiB\nDuration                                 : 22mn 59s\nOverall bit rate mode                    : Variable\nOverall bit rate                         : 308 Kbps\n\nVideo\n------\n\nID                                       : 1\nFormat                                   : AVC\nFormat/Info                              : Advanced Video Codec\nFormat profile                           : &lt;a class=&quot;__cf_email__&quot; href=&quot;/cdn-cgi/l/email-protection&quot; data-cfemail=&quot;236e424a4d636f100d13&quot;&gt;[email&amp;#160;protected]&lt;/a&gt;&lt;script cf-hash='f9e31' type=&quot;text/javascript&quot;&gt;\n/* &lt;![CDATA[ */!function(){try{var t=&quot;currentScript&quot;in document?document.currentScript:function(){for(var t=document.getElementsByTagName(&quot;script&quot;),e=t.length;e--;)if(t[e].getAttribute(&quot;cf-hash&quot;))return t[e]}();if(t&amp;&amp;t.previousSibling){var e,r,n,i,c=t.previousSibling,a=c.getAttribute(&quot;data-cfemail&quot;);if(a){for(e=&quot;&quot;,r=parseInt(a.substr(0,2),16),n=2;a.length-n;n+=2)i=parseInt(a.substr(n,2),16)^r,e+=String.fromCharCode(i);e=document.createTextNode(e),c.parentNode.replaceChild(e,c)}}}catch(u){}}();/* ]]&gt; */&lt;/script&gt;\nFormat settings, CABAC                   : Yes\nFormat settings, ReFrames                : 4 frames\nCodec ID                                 : avc1\nCodec ID/Info                            : Advanced Video Coding\nDuration                                 : 22mn 59s\nBit rate                                 : 240 Kbps\nMaximum bit rate                         : 1 566 Kbps\nWidth                                    : 640 pixels\nHeight                                   : 360 pixels\nDisplay aspect ratio                     : 16:9\nFrame rate mode                          : Constant\nFrame rate                               : 23.976 fps\nColor space                              : YUV\nChroma subsampling                       : 4:2:0\nBit depth                                : 8 bits\nScan type                                : Progressive\nBits/(Pixel*Frame)                       : 0.043\nStream size                              : 39.5 MiB (78%)\nWriting library                          : x264 core 119 r2106 07efeb4\n\nAudio\n------\n\nID                                       : 2\nFormat                                   : AAC\nFormat/Info                              : Advanced Audio Codec\nFormat profile                           : LC\nCodec ID                                 : 40\nDuration                                 : 22mn 59s\nBit rate mode                            : Variable\nBit rate                                 : 64.0 Kbps\nMaximum bit rate                         : 149 Kbps\nChannel(s)                               : 2 channels\nChannel positions                        : Front: L R\nSampling rate                            : 48.0 KHz\nCompression mode                         : Lossy\nDelay relative to video                  : 83ms\nStream size                              : 10.5 MiB (21%)\n\n----------------------------------------------------------------------------------\n\nScreenshots\n----------------------------------------------------------------------------------\n        &lt;a href=&quot;\nhttp://img10.imageshack.us/img10/6812/kurozuka1.png&quot; rel=&quot;nofollow&quot; target=&quot;_NEW&quot;&gt;\nhttp://img10.imageshack.us/img10/6812/kurozuka1.png&lt;/a&gt;\n        &lt;a href=&quot;\nhttp://img94.imageshack.us/img94/953/kurozuka2.png&quot; rel=&quot;nofollow&quot; target=&quot;_NEW&quot;&gt;\nhttp://img94.imageshack.us/img94/953/kurozuka2.png&lt;/a&gt;\n        &lt;a href=&quot;\nhttp://img248.imageshack.us/img248/3977/kurozuka3.png&quot; rel=&quot;nofollow&quot; target=&quot;_NEW&quot;&gt;\nhttp://img248.imageshack.us/img248/3977/kurozuka3.png&lt;/a&gt;\n        &lt;a href=&quot;\nhttp://img443.imageshack.us/img443/6792/kurozuka4.png&quot; rel=&quot;nofollow&quot; target=&quot;_NEW&quot;&gt;\nhttp://img443.imageshack.us/img443/6792/kurozuka4.png&lt;/a&gt;\n        &lt;a href=&quot;\nhttp://img706.imageshack.us/img706/8582/kurozuka5.png&quot; rel=&quot;nofollow&quot; target=&quot;_NEW&quot;&gt;\nhttp://img706.imageshack.us/img706/8582/kurozuka5.png&lt;/a&gt;\n &lt;a href=&quot;\nhttp://img542.imageshack.us/img542/9101/kurozuka6.png&quot; rel=&quot;nofollow&quot; target=&quot;_NEW&quot;&gt;\nhttp://img542.imageshack.us/img542/9101/kurozuka6.png&lt;/a&gt;\n\n\n----------------------------------------------------------------------------------\n\nStory\n----------------------------------------------------------------------------------\n\nKuro, a 12th-century man, flees into the mountains after losing to his brother, where he meets a strange, beautiful woman named Kuromitsu. Kuro falls in love with Kuromitsu but realizes she conceals a dark secret. She is unable to die and continues to live for thousands of years as Japan evolves into a future society.\n\n----------------------------------------------------------------------------------\n\nThank you for downloading. \n\nEnjoy Watching :)\t\t\t\t\n\t\t","torrent":{"xt":"urn:btih:19288e7099c5969fefa5b9477941095055df9648","amp;dn":"Kurozuka+%28+Complete+Ep+1-12%29+480p+%5BCursator%5D","amp;tr":["udp%3A%2F%2Ftracker.openbittorrent.com%3A80","udp%3A%2F%2Fopen.demonii.com%3A1337","udp%3A%2F%2Ftracker.coppersurfer.tk%3A6969","udp%3A%2F%2Fexodus.desync.com%3A6969"],"infoHash":"19288e7099c5969fefa5b9477941095055df9648","infoHashBuffer":{"type":"Buffer","data":[25,40,142,112,153,197,150,159,239,165,185,71,121,65,9,80,85,223,150,72]},"announce":[],"urlList":[]}}